<?xml version="1.0" encoding="UTF-8" standalone="no"?>
<svg
   xmlns:dc="http://purl.org/dc/elements/1.1/"
   xmlns:cc="http://creativecommons.org/ns#"
   xmlns:rdf="http://www.w3.org/1999/02/22-rdf-syntax-ns#"
   xmlns:svg="http://www.w3.org/2000/svg"
   xmlns="http://www.w3.org/2000/svg"
   xmlns:xlink="http://www.w3.org/1999/xlink"
   xmlns:sodipodi="http://sodipodi.sourceforge.net/DTD/sodipodi-0.dtd"
   xmlns:inkscape="http://www.inkscape.org/namespaces/inkscape"
   sodipodi:docname="logo.svg"
   inkscape:version="1.0 (4035a4f, 2020-05-01)"
   id="svg8"
   version="1.1"
   viewBox="0 0 132.29166 132.29167"
   height="500"
   width="500">
  <defs
     id="defs2">
    <linearGradient
       inkscape:collect="always"
       id="linearGradient1113">
      <stop
         style="stop-color:#ffffff;stop-opacity:1"
         offset="0"
         id="stop1133" />
      <stop
         style="stop-color:#800000;stop-opacity:0"
         offset="1"
         id="stop1135" />
    </linearGradient>
    <filter
       height="1.0083414"
       y="-0.0041707079"
       width="1.0096724"
       x="-0.0048361848"
       id="filter1194"
       style="color-interpolation-filters:sRGB"
       inkscape:collect="always">
      <feGaussianBlur
         id="feGaussianBlur1196"
         stdDeviation="0.21753508"
         inkscape:collect="always" />
    </filter>
    <radialGradient
       gradientUnits="userSpaceOnUse"
       gradientTransform="matrix(0,1.6134947,-1.4098223,0,137.99109,-178.05422)"
       r="54.49895"
       fy="16.03566"
       fx="115.38365"
       cy="16.03566"
       cx="115.38365"
       id="radialGradient1198"
       xlink:href="#linearGradient1113"
       inkscape:collect="always" />
  </defs>
  <sodipodi:namedview
     inkscape:snap-global="false"
     inkscape:window-maximized="0"
     inkscape:window-y="23"
     inkscape:window-x="0"
     inkscape:window-height="809"
     inkscape:window-width="1440"
     inkscape:guide-bbox="true"
     showguides="true"
     units="px"
     showgrid="false"
     inkscape:document-rotation="0"
     inkscape:current-layer="layer1"
     inkscape:document-units="mm"
     inkscape:cy="224.40292"
     inkscape:cx="161.83454"
     inkscape:zoom="0.99613463"
     inkscape:pageshadow="2"
     inkscape:pageopacity="0.0"
     borderopacity="1.0"
     bordercolor="#666666"
     pagecolor="#ffffff"
     id="base" />
  <metadata
     id="metadata5">
    <rdf:RDF>
      <cc:Work
         rdf:about="">
        <dc:format>image/svg+xml</dc:format>
        <dc:type
           rdf:resource="http://purl.org/dc/dcmitype/StillImage" />
        <dc:title></dc:title>
      </cc:Work>
    </rdf:RDF>
  </metadata>
  <g
     sodipodi:insensitive="true"
     style="display:inline"
     id="layer1"
     inkscape:groupmode="layer"
     inkscape:label="mask">
    <path
       id="path171"
       style="opacity:1;fill:#ffffff;fill-rule:evenodd;stroke-width:0.264583"
       d="m 22.859585,3.5570789 c -0.89324,-0.00615 -1.582331,0.03226 -2.052071,0.099736 -4.596454,0.6602531 -7.142554,2.705631 -7.520471,7.8103761 -3.3421021,45.143653 -0.563612,87.417566 27.569893,116.005319 1.570201,1.59556 2.053995,2.17034 1.850017,-1.26865 -1.380609,-23.2764 14.016648,-22.58002 23.438879,-22.58002 9.422228,0 24.819488,-0.69638 23.438879,22.58002 -0.20398,3.43899 0.279816,2.86421 1.850014,1.26865 C 119.56823,98.884757 122.34672,56.610844 119.00462,11.467191 118.6267,6.3624464 116.0806,4.317068 111.48414,3.6568149 111.0144,3.5893389 110.32531,3.5509315 109.43207,3.5570789 103.657,3.5968249 89.135549,4.9881352 70.828587,13.424784 66.849721,15.258417 65.097344,14.983031 61.578332,13.474134 42.989861,5.5036944 28.646621,3.5969071 22.859585,3.5570789 Z M 31.17794,28.837706 c 0.27296,-0.0043 0.543753,-0.004 0.811319,0 0.987933,0.01487 1.931791,0.07955 2.778643,0.140044 5.911334,0.422256 15.651623,6.249916 17.172594,11.182263 1.821793,5.907878 1.396359,9.259821 -6.337081,6.077664 -6.242846,-2.568805 -13.201801,-3.25642 -19.784838,-1.870686 -5.367025,1.12976 -6.740318,-1.275295 -4.823994,-8.592757 1.506506,-5.752584 6.088962,-6.872152 10.183357,-6.936528 z m 69.12446,0 c 4.28104,-0.06446 9.38773,0.800439 10.99468,6.936528 1.91631,7.317462 0.54303,9.722517 -4.824,8.592757 -6.583035,-1.385734 -13.541985,-0.698119 -19.784834,1.870686 -7.733437,3.182157 -8.158874,-0.169786 -6.33708,-6.077664 1.52097,-4.932347 11.261254,-10.760007 17.172596,-11.182263 0.846849,-0.06049 1.790713,-0.125175 2.778638,-0.140044 z"
       sodipodi:nodetypes="ssssssscsssssssssssssscsssssc" />
    <path
       sodipodi:nodetypes="sssssssscssssssssssssssscsssssc"
       d="m 22.859585,3.5570816 c -0.89324,-0.00615 -1.582331,0.03226 -2.052071,0.099736 -4.596454,0.6602531 -7.142554,2.7056311 -7.520471,7.8103764 -3.3421022,45.143655 -0.563612,87.417568 27.569893,116.005316 1.570202,1.59556 2.053995,2.17034 1.850017,-1.26865 -1.380609,-23.2764 14.016649,-22.58002 23.438879,-22.58002 2.248018,0 4.836155,-0.0396 7.455402,0.21612 8.358931,0.8162 17.034692,4.64094 15.983478,22.3639 -0.203979,3.43899 0.279815,2.86421 1.850014,1.26865 C 117.07875,101.41443 121.65646,63.985152 119.73473,23.376303 119.54817,19.434066 119.30036,15.461865 119.00462,11.467194 118.6267,6.362449 116.08061,4.3170707 111.48414,3.6568176 111.0144,3.5893416 110.32531,3.5509342 109.43207,3.5570816 103.657,3.5968276 89.13555,4.9881379 70.828587,13.424787 66.849722,15.25842 65.097344,14.983034 61.578333,13.474137 42.989861,5.5036971 28.646621,3.5969098 22.859585,3.5570816 Z M 31.17794,28.837709 c 0.27296,-0.0043 0.543754,-0.004 0.81132,0 0.987933,0.01487 1.93179,0.07955 2.778643,0.140044 5.911334,0.422256 15.651622,6.249915 17.172593,11.182265 1.821794,5.907875 1.39636,9.259818 -6.33708,6.077661 -6.242847,-2.568805 -13.201801,-3.25642 -19.784839,-1.870686 -5.367025,1.12976 -6.740318,-1.275294 -4.823994,-8.592756 1.506506,-5.752585 6.088962,-6.872152 10.183357,-6.936528 z m 69.12446,0 c 4.28104,-0.06446 9.38773,0.800439 10.99468,6.936528 1.91632,7.317462 0.54303,9.722516 -4.824,8.592756 -6.583033,-1.385734 -13.541985,-0.698119 -19.784834,1.870686 -7.733437,3.182157 -8.158874,-0.169786 -6.33708,-6.077661 1.52097,-4.93235 11.261254,-10.760009 17.172596,-11.182265 0.846849,-0.06049 1.790713,-0.125175 2.778638,-0.140044 z"
       style="display:inline;opacity:1;fill:#800000;fill-rule:evenodd;stroke-width:0.264583"
       id="path171-2" />
  </g>
  <g
     sodipodi:insensitive="true"
     style="display:inline"
     inkscape:label="lines"
     id="layer3"
     inkscape:groupmode="layer">
    <path
       id="path171-8"
       style="opacity:1;fill:none;fill-rule:evenodd;stroke:#000000;stroke-width:1.32292;stroke-miterlimit:4;stroke-dasharray:none"
       d="m 22.859587,3.5570734 c -0.89324,-0.00615 -1.582331,0.03226 -2.052071,0.099736 -4.596454,0.6602531 -7.142554,2.7056312 -7.520471,7.8103766 -3.3421024,45.143655 -0.563612,87.417568 27.569893,116.005324 1.570201,1.59556 2.053995,2.17034 1.850017,-1.26865 -1.380609,-23.2764 14.016649,-22.58002 23.438879,-22.58002 9.422228,0 24.819488,-0.69638 23.438879,22.58002 -0.20398,3.43899 0.279816,2.86421 1.850015,1.26865 C 119.56824,98.884754 122.34673,56.610841 119.00463,11.467186 118.62671,6.3624412 116.08062,4.3170625 111.48414,3.6568094 111.0144,3.5893334 110.32531,3.550926 109.43207,3.5570734 103.657,3.5968194 89.135551,4.9881297 70.828589,13.424779 66.849724,15.258412 65.097346,14.983026 61.578335,13.474129 42.989863,5.5036889 28.646623,3.5969016 22.859587,3.5570734 Z m 8.318355,25.2806276 c 0.27296,-0.0043 0.543754,-0.004 0.81132,0 0.987933,0.01487 1.93179,0.07955 2.778643,0.140044 5.911333,0.422255 15.651622,6.249915 17.172593,11.182264 1.821794,5.907876 1.39636,9.259819 -6.337081,6.077662 -6.242846,-2.568805 -13.2018,-3.25642 -19.784838,-1.870686 -5.367025,1.12976 -6.740318,-1.275294 -4.823994,-8.592757 1.506506,-5.752584 6.088962,-6.872151 10.183357,-6.936527 z m 69.124458,0 c 4.28104,-0.06446 9.38773,0.800438 10.99468,6.936527 1.91633,7.317463 0.54304,9.722517 -4.824,8.592757 -6.583031,-1.385734 -13.541983,-0.698119 -19.784832,1.870686 -7.733437,3.182157 -8.158874,-0.169786 -6.33708,-6.077662 C 81.872138,35.22766 91.612422,29.4 97.523764,28.977745 c 0.846849,-0.06049 1.790713,-0.125175 2.778636,-0.140044 z"
       sodipodi:nodetypes="ssssssscsssssssssssssscsssssc" />
    <path
       id="path171-8-4"
       style="opacity:1;fill:none;fill-rule:evenodd;stroke:#ffffff;stroke-width:1.32292;stroke-miterlimit:4;stroke-dasharray:none"
       d="M 108.99609,6.7402262 C 95.857431,7.2639991 83.102726,11.282123 71.214846,16.716789 68.250007,18.083967 64.699079,18.306484 61.699815,16.91322 56.753382,14.937833 51.818432,12.90307 46.717874,11.341049 39.571283,9.0977867 32.224567,7.4186832 24.770025,6.8209874 22.40878,6.705044 19.735433,6.5449933 17.775393,8.1113201 c -1.28574,1.2454966 -1.277992,3.2468369 -1.418578,4.8297339 -1.461143,22.286286 -1.93065,44.96498 3.035234,66.837089 3.08606,13.614088 8.587931,26.916427 17.210403,37.975957 0.934791,1.20575 1.895898,2.39164 2.899502,3.54081 0.225255,-5.2778 1.640784,-10.7926 5.329597,-14.74223 3.160075,-3.41551 7.72717,-5.17123 12.274669,-5.70234 4.838261,-0.63548 9.733447,-0.36767 14.597462,-0.32288 5.066758,0.22547 10.386282,1.33446 14.354958,4.69016 3.957723,3.32462 5.981102,8.43357 6.515817,13.47606 0.104267,0.87625 0.165656,1.75707 0.210701,2.63835 9.069622,-10.49085 15.299412,-23.243923 18.863192,-36.558839 4.68039,-17.234014 5.5751,-35.196648 5.1987,-53.004294 -0.1847,-7.213093 -0.54982,-14.402362 -1.20512,-21.586016 -0.32206,-1.6763727 -1.80125,-2.986778 -3.48996,-3.1684147 -1.03263,-0.2425099 -2.09872,-0.288785 -3.15588,-0.2742401 z"
       sodipodi:nodetypes="ccccccccccccccccccccc" />
  </g>
</svg>
